<?xml version="1.0" encoding="UTF-8"?>
<svg id="_图层_2" data-name="图层 2" xmlns="http://www.w3.org/2000/svg" viewBox="0 0 596.13 172.96">
  <defs>
    <style>
      .cls-1 {
        fill: #fff;
      }

      .cls-2 {
        fill: #4848ff;
      }
    </style>
  </defs>
  <g id="_图层_1-2" data-name="图层 1">
    <g>
      <rect width="596.13" height="172.96" rx="22.31" ry="22.31"/>
      <path class="cls-1" d="M82.67,29.17c-11.5,1.91-10.31,20.95,3.06,19.59,12.53-1.27,10.47-21.84-3.06-19.59ZM63.26,35.03h-17.69l30.66,52.74c.18,3.94.72,7.92.12,11.78l.02,22.76h15.63v-33.76c9.14-15.87,19.03-31.34,28.11-47.24,1.13-1.99,2.5-4.08,3.14-6.28h-17.23l-21.82,36.75-20.92-36.75ZM317.17,122.31h34.24c3.27,0,11.8-3.23,14.95-4.81,30.32-15.24,31.39-60.96,1.38-77.19-3.43-1.85-12.64-5.27-16.32-5.27h-34.24v87.28ZM186.58,108.14c-11.6-.96-7.47-16.45-8.25-24.59-3.92-41.07-65.32-40.2-67.5,3.16-1.53,30.5,33.39,50.03,55.83,27.34,2.79,5.33,14.04,11.28,19.69,9.57,1.33-.4.2-1.9.26-2.91.25-4.08,1.26-8.53-.03-12.56ZM306.14,122.31c-3.97-14.9-1.15-30.73-2.3-45.7-.88-11.37-6.93-19.04-18.02-21.96-15.39-4.05-38.76.32-38.96,19.88,2.68-1,5.24.07,7.58.04,2.07-.03,4.15-1.15,6.4-.1,1.41-2.66,2.73-5.32,5.45-6.93,5.24-3.09,19.85-2.63,20.98,4.95.56,3.8-1.61,5.01-4.78,6.19-12.62,4.66-35.6,2.77-37.47,21.35-2.62,26.03,32.06,32.22,43.89,12.63,1.1-.19.54.52.69,1.13.72,2.86,1.3,5.74,2.29,8.52h14.25ZM428.29,53.54c-26.15,2.31-40.24,32.38-26.02,54.21,10.03,15.39,30.64,20.67,46.8,11.58,32.82-18.47,17.71-69.2-20.78-65.79ZM541.9,96.13h-15.4c-6.83,19.29-34.59,15.04-36.1-5.26-.98-13.24,8.19-23.7,21.84-22.29,6.93.71,11.71,5.82,14.25,11.94h14.71c1.42,0-.17-5.1-.46-5.98-11.33-35.09-68.74-24.13-66.43,16.33,2.29,40.01,61.41,45.57,67.57,5.27ZM197.91,54.78h-15.85l22.49,57.69c-2.89,9.37-5.76,21.72-18.36,19.94v15.16h7.12c10.07,0,19.37-13.45,22.04-22.06l27.82-70.73h-15.85l-14.48,39.51-14.93-39.51Z"/>
      <path class="cls-1" d="M317.17,122.31V35.03h34.24c3.68,0,12.9,3.42,16.32,5.27,30.01,16.23,28.94,61.95-1.38,77.19-3.14,1.58-11.68,4.81-14.95,4.81h-34.24ZM333.25,106.69h16.31c.81,0,4.13-.95,5.17-1.26,24.15-7.24,25.5-43.68,2.07-52.84-1.4-.55-5.52-1.95-6.78-1.95h-16.08l-.69.69v55.36Z"/>
      <path class="cls-1" d="M186.58,108.14c1.3,4.03.28,8.48.03,12.56-.06,1.02,1.07,2.51-.26,2.91-5.65,1.71-16.9-4.24-19.69-9.57-22.45,22.7-57.36,3.16-55.83-27.34,2.17-43.36,63.57-44.24,67.5-3.16.78,8.14-3.35,23.63,8.25,24.59ZM132.13,73.32c-9.57,9.01-7.17,28.8,5.64,33.77,17.32,6.72,29.68-10.46,24.3-26.59-4.21-12.62-20.45-16.12-29.94-7.18Z"/>
      <path class="cls-1" d="M428.29,53.54c38.49-3.4,53.6,47.32,20.78,65.79-16.16,9.09-36.77,3.81-46.8-11.58-14.23-21.83-.14-51.9,26.02-54.21ZM428.73,68.68c-21.43,2.93-21.81,38.13,1.78,39.79,28.22,1.98,27.27-43.76-1.78-39.79Z"/>
      <path class="cls-1" d="M306.14,122.31h-14.25c-.99-2.78-1.57-5.66-2.29-8.52-.15-.61.41-1.32-.69-1.13-11.83,19.6-46.5,13.4-43.89-12.63,1.87-18.58,24.85-16.69,37.47-21.35,3.18-1.17,5.34-2.38,4.78-6.19-1.12-7.58-15.74-8.04-20.98-4.95-2.73,1.61-4.05,4.27-5.45,6.93-2.25-1.05-4.34.07-6.4.1-2.34.03-4.9-1.04-7.58-.04.2-19.56,23.57-23.93,38.96-19.88,11.08,2.92,17.14,10.58,18.02,21.96,1.16,14.98-1.66,30.81,2.3,45.7ZM288.68,86.48c-6.78,6.39-31.63,3.86-28.18,17.83,2.06,8.34,13.98,8.02,20.04,4.59,3.76-2.12,8.13-8.2,8.13-12.54v-9.88Z"/>
      <path class="cls-1" d="M541.9,96.13c-6.16,40.3-65.28,34.74-67.57-5.27-2.32-40.46,55.1-51.42,66.43-16.33.28.88,1.88,5.98.46,5.98h-14.71c-2.54-6.12-7.32-11.23-14.25-11.94-13.65-1.4-22.82,9.06-21.84,22.29,1.5,20.3,29.26,24.55,36.1,5.26h15.4Z"/>
      <path class="cls-1" d="M197.91,54.78l14.93,39.51,14.48-39.51h15.85l-27.82,70.73c-2.67,8.61-11.98,22.06-22.04,22.06h-7.12v-15.16c12.6,1.78,15.47-10.57,18.36-19.94l-22.49-57.69h15.85Z"/>
      <path class="cls-1" d="M63.26,35.03l20.92,36.75,21.82-36.75h17.23c-.64,2.2-2,4.29-3.14,6.28-9.08,15.9-18.97,31.37-28.11,47.24v33.76h-15.63l-.02-22.76c.6-3.86.06-7.84-.12-11.78l-30.66-52.74h17.69Z"/>
      <path class="cls-2" d="M82.51,28.7c14.46-2.46,16.66,20.04,3.27,21.42-14.29,1.48-15.56-19.33-3.27-21.42Z"/>
      <path d="M333.25,106.69v-55.36l.69-.69h16.08c1.27,0,5.38,1.4,6.78,1.95,23.43,9.16,22.08,45.6-2.07,52.84-1.04.31-4.37,1.26-5.17,1.26h-16.31Z"/>
      <path d="M132.13,73.32c9.49-8.94,25.73-5.44,29.94,7.18,5.38,16.12-6.98,33.3-24.3,26.59-12.81-4.97-15.21-24.76-5.64-33.77Z"/>
      <path d="M428.73,68.68c29.05-3.97,29.99,41.76,1.78,39.79-23.59-1.65-23.21-36.85-1.78-39.79Z"/>
      <path d="M288.68,86.48v9.88c0,4.34-4.37,10.42-8.13,12.54-6.06,3.43-17.98,3.75-20.04-4.59-3.45-13.97,21.39-11.44,28.18-17.83Z"/>
    </g>
  </g>
</svg>